<?xml version="1.0" encoding="UTF-8"?>
<svg xmlns="http://www.w3.org/2000/svg" width="224" height="69" viewBox="0 0 224 69" fill="none">
  <mask id="mask0_1732_130" style="mask-type:luminance" maskUnits="userSpaceOnUse" x="0" y="0" width="124" height="22">
    <path fill-rule="evenodd" clip-rule="evenodd" d="M0 0.455078H123.906V21.0905H0V0.455078Z" fill="white"></path>
  </mask>
  <g mask="url(#mask0_1732_130)">
    <path fill-rule="evenodd" clip-rule="evenodd" d="M123.372 20.273C106.025 7.8274 84.7819 0.490121 61.8298 0.455202C38.7748 0.420284 17.4273 7.75611 0 20.2483L0.477321 20.8942C16.7744 9.32745 36.6798 2.52704 58.1665 2.52704C69.6469 2.52704 80.6731 4.46939 90.9421 8.04128L90.5605 9.14558C81.0271 6.0771 70.8699 4.40392 60.3297 4.36754C43.0445 4.30644 26.7706 8.64799 12.5612 16.3417L13.0299 17.0837C25.8595 10.0578 40.5767 6.06255 56.2224 6.06255C63.8479 6.06255 71.2529 7.01118 78.3242 8.79639L78.0849 9.93416C71.4517 8.37446 64.5356 7.55096 57.428 7.55096C47.0532 7.55096 37.0845 9.30708 27.808 12.54L28.0909 13.4333C35.9834 10.6602 44.4605 9.13539 53.2932 9.09902C58.8165 9.0772 64.2034 9.64462 69.4002 10.73L69.3683 11.3193C61.8501 13.234 55.4418 15.4382 47.9425 20.4578L48.1848 20.8739C59.7493 16.2326 72.3149 13.573 85.5334 13.573C98.8128 13.573 111.496 16.1511 123.107 20.8346C123.317 20.9263 123.523 21.0165 123.693 21.0907L123.906 20.6571C123.726 20.532 123.551 20.3996 123.372 20.273Z" fill="#FFB600"></path>
  </g>
  <path fill-rule="evenodd" clip-rule="evenodd" d="M138.441 23.2088C138.441 25.7521 138.627 25.915 140.908 26.0561V26.5916H134.113V26.0561C136.3 25.915 136.487 25.7521 136.487 23.2088V12.1963H135.393C133.323 12.1963 132.695 12.5004 132.345 12.9413C132.09 13.2686 131.81 13.9219 131.531 14.9491H130.949C131.042 13.5262 131.181 12.0319 131.228 10.8418H131.554C131.902 11.3787 132.136 11.4252 132.764 11.4252H142.303C142.908 11.4252 143.024 11.287 143.397 10.8418H143.724C143.745 11.8239 143.863 13.5262 143.979 14.8793L143.397 14.9491C143.164 13.8303 142.908 13.1755 142.559 12.8031C142.164 12.3593 141.443 12.1963 139.999 12.1963H138.441V23.2088Z" fill="white"></path>
  <path fill-rule="evenodd" clip-rule="evenodd" d="M148.796 17.8195C149.586 16.98 150.843 16.2336 152.099 16.1856C154.1 16.1391 155.311 17.4689 155.311 19.5465V24.4933C155.311 25.7984 155.427 25.9148 156.846 26.0327V26.5914H151.913V26.056C153.379 25.9148 153.496 25.7984 153.496 24.4933V20.2464C153.496 18.5659 152.89 17.4689 151.192 17.4689C150.238 17.5154 149.377 17.8661 148.796 18.5426V24.4933C148.796 25.7984 148.912 25.9148 150.332 26.056V26.5914H145.398V26.056C146.865 25.9148 146.981 25.7984 146.981 24.4933V12.8494C146.981 11.425 146.934 11.4498 145.328 11.3087V10.8431C146.422 10.6321 147.911 10.2596 148.796 10.0254V17.8195Z" fill="white"></path>
  <path fill-rule="evenodd" clip-rule="evenodd" d="M166.314 24.5854C165.035 26.4056 163.43 26.8726 162.801 26.8726C159.847 26.8726 158.078 24.6553 158.078 21.9491C158.078 18.8224 160.265 16.1875 163.057 16.1875C164.872 16.1875 166.384 17.865 166.384 19.4291C166.384 20.1522 166.314 20.1988 165.895 20.2919C165.57 20.3632 162.685 20.596 159.799 20.6891C159.729 24.165 161.917 25.3784 163.593 25.3784C164.36 25.3784 165.058 25.1005 165.989 24.2595L166.314 24.5854ZM163.987 19.7783C164.314 19.7783 164.408 19.6619 164.408 19.0334C164.408 18.0993 163.662 16.979 162.452 16.979C161.335 16.979 160.125 18.124 159.94 19.8481L163.987 19.7783Z" fill="white"></path>
  <path fill-rule="evenodd" clip-rule="evenodd" d="M83.7819 35.4154C83.084 32.7311 81.594 32.0079 79.3148 32.0079C75.1263 32.0079 73.2648 35.1826 73.2648 38.8447C73.2648 43.3492 75.5688 46.3362 79.338 46.3362C81.9422 46.3362 83.1522 45.0762 84.294 42.6261L84.8758 42.696C84.5726 43.697 84.059 45.5651 83.689 46.4526C83.0362 46.6141 80.9426 47.1059 79.3148 47.1059C73.4273 47.1059 70.9609 43.0903 70.9609 39.3816C70.9609 34.5759 74.6605 31.2383 79.7558 31.2383C81.7348 31.2383 83.293 31.7053 83.9429 31.845C84.1315 33.1283 84.2244 34.1554 84.3622 35.3689L83.7819 35.4154Z" fill="white"></path>
  <path fill-rule="evenodd" clip-rule="evenodd" d="M93.2058 47.0342C92.4151 46.8945 92.0655 46.1001 91.9262 45.5182C90.9469 46.1482 89.6919 47.0342 89.203 47.0342C87.5041 47.0342 86.4102 45.6346 86.4102 44.3513C86.4102 43.2776 86.9702 42.4846 88.1802 41.9943C89.3191 41.5273 91.2283 40.8507 91.9262 40.3604V39.5674C91.9262 38.1212 91.2501 37.3516 90.0184 37.3516C88.878 37.3516 88.3891 38.3307 88.1337 39.3099C88.0641 39.5907 87.8537 39.7537 87.5984 39.7537C87.2255 39.7537 86.5959 39.3812 86.5959 38.9607C86.5959 38.6581 86.8773 38.3307 87.3895 37.9583C87.948 37.5378 89.3191 36.6503 90.9716 36.3477C91.6244 36.3477 92.344 36.5572 92.8097 36.9078C93.5787 37.5145 93.6948 38.3307 93.6948 39.1717V44.4211C93.6948 45.2839 93.9965 45.6811 94.3462 45.6811C94.5319 45.6811 94.928 45.588 95.3472 45.3785L95.5562 45.8906L93.2058 47.0342ZM91.9262 41.1082C91.4141 41.3177 90.0184 41.9477 89.5759 42.1805C88.7619 42.6243 88.3659 43.0913 88.3659 43.9308C88.3659 45.1675 89.203 45.751 89.9023 45.751C90.4376 45.751 91.298 45.3319 91.9262 44.8416V41.1082Z" fill="white"></path>
  <path fill-rule="evenodd" clip-rule="evenodd" d="M98.0934 32.9883C98.0934 31.6119 98.0485 31.5886 96.441 31.4722V31.0052C97.5581 30.7957 99.0728 30.4203 99.9084 30.1875V44.6555C99.9084 45.962 100.024 46.0784 101.607 46.2181V46.7549H96.3945V46.2181C97.9774 46.0784 98.0934 45.962 98.0934 44.6555V32.9883Z" fill="white"></path>
  <path fill-rule="evenodd" clip-rule="evenodd" d="M106.91 44.655C106.91 45.9616 107.026 46.0794 108.585 46.2176V46.7545H103.441V46.2176C104.979 46.0794 105.095 45.9616 105.095 44.655V39.2645C105.095 37.8648 105.049 37.8415 103.514 37.6553V37.2348C104.583 37.002 105.724 36.7212 106.91 36.3022V44.655ZM107.214 32.1251C107.214 32.8249 106.677 33.385 106.004 33.385C105.352 33.385 104.792 32.8249 104.792 32.1251C104.792 31.4019 105.352 30.8418 106.004 30.8418C106.677 30.8418 107.214 31.4019 107.214 32.1251Z" fill="white"></path>
  <path fill-rule="evenodd" clip-rule="evenodd" d="M114.033 37.5146V44.654C114.033 45.9387 114.149 46.0551 116.103 46.2166V46.7549H110.68V46.2166C112.102 46.0551 112.218 45.9387 112.218 44.654V37.5146H110.564L110.473 37.2818L111.124 36.6285H112.218V36.2764C112.218 35.3191 112.311 34.5974 112.45 34.1784C112.613 33.7114 112.939 32.498 114.195 31.4227C115.102 30.6778 115.939 30.3039 116.965 30.1875C117.593 30.2341 118.291 30.5832 118.71 31.0517C118.943 31.3064 118.896 31.4926 118.803 31.705C118.734 31.8912 118.523 32.124 118.359 32.287C118.081 32.5198 117.895 32.498 117.686 32.3117C117.174 31.8214 116.476 31.3544 115.709 31.3544C115.359 31.3544 114.988 31.5624 114.684 31.9829C114.359 32.4034 114.008 33.6648 114.033 35.6479V36.6285H116.916C117.033 36.8831 116.942 37.3735 116.685 37.5146H114.033Z" fill="white"></path>
  <path fill-rule="evenodd" clip-rule="evenodd" d="M117.871 41.9696C117.871 38.0514 120.896 36.3477 123.013 36.3477C125.968 36.3477 128.085 38.6101 128.085 41.5258C128.085 45.1661 125.386 47.0328 123.036 47.0328C119.756 47.0328 117.871 44.3964 117.871 41.9696ZM125.968 42.0409C125.968 39.4511 124.851 37.046 122.734 37.046C121.173 37.046 119.988 38.6581 119.988 41.1068C119.988 44.069 121.269 46.3329 123.291 46.3329C124.733 46.3329 125.968 45.1893 125.968 42.0409Z" fill="white"></path>
  <path fill-rule="evenodd" clip-rule="evenodd" d="M133.486 44.6536C133.486 45.9601 133.602 46.078 135.417 46.2162V46.7531H130.066V46.2162C131.555 46.078 131.671 45.9601 131.671 44.6536V39.263C131.671 37.8634 131.626 37.8401 130.088 37.6539V37.2334C131.182 37.0006 132.322 36.7198 133.486 36.3008V38.7029H133.532C134.068 37.7936 135.208 36.3473 136.324 36.3473C137.023 36.3473 137.58 36.9773 137.58 37.4429C137.58 37.8401 137.325 38.377 136.837 38.5865C136.582 38.7029 136.37 38.6563 136.254 38.5632C135.931 38.2839 135.675 38.0729 135.256 38.0729C134.696 38.0729 134.091 38.5167 133.486 39.7301V44.6536Z" fill="white"></path>
  <path fill-rule="evenodd" clip-rule="evenodd" d="M142.533 38.0511C142.976 37.7252 143.486 37.3993 144.091 37.0239C144.789 36.6049 145.371 36.3473 146.094 36.3473C148.001 36.3473 149.047 37.6073 149.047 39.4507V44.6551C149.047 45.9616 149.163 46.0795 150.514 46.2177V46.7545H145.581V46.2177C147.115 46.0795 147.232 45.9616 147.232 44.6551V40.1738C147.232 38.8207 146.791 37.6553 145.069 37.6553C144.161 37.6553 143.23 38.1442 142.533 38.7509V44.6551C142.533 45.9616 142.649 46.0795 144.02 46.2177V46.7545H138.996V46.2177C140.602 46.0795 140.718 45.9616 140.718 44.6551V39.2645C140.718 37.8648 140.672 37.8416 139.135 37.6553V37.2349C140.206 37.0006 141.346 36.7213 142.533 36.3008V38.0511Z" fill="white"></path>
  <path fill-rule="evenodd" clip-rule="evenodd" d="M155.586 44.655C155.586 45.9616 155.702 46.0794 157.26 46.2176V46.7545H152.117V46.2176C153.655 46.0794 153.771 45.9616 153.771 44.655V39.2645C153.771 37.8648 153.725 37.8415 152.187 37.6553V37.2348C153.259 37.002 154.399 36.7212 155.586 36.3022V44.655ZM155.888 32.1251C155.888 32.8249 155.353 33.385 154.678 33.385C154.026 33.385 153.468 32.8249 153.468 32.1251C153.468 31.4019 154.026 30.8418 154.678 30.8418C155.353 30.8418 155.888 31.4019 155.888 32.1251Z" fill="white"></path>
  <path fill-rule="evenodd" clip-rule="evenodd" d="M165.591 47.0342C164.8 46.8945 164.451 46.1001 164.311 45.5182C163.334 46.1482 162.077 47.0342 161.588 47.0342C159.891 47.0342 158.797 45.6346 158.797 44.3513C158.797 43.2776 159.355 42.4846 160.565 41.9943C161.706 41.5273 163.615 40.8507 164.311 40.3604V39.5674C164.311 38.1212 163.637 37.3516 162.404 37.3516C161.265 37.3516 160.776 38.3307 160.519 39.3099C160.449 39.5907 160.24 39.7537 159.984 39.7537C159.611 39.7537 158.983 39.3812 158.983 38.9607C158.983 38.6581 159.264 38.3307 159.775 37.9583C160.332 37.5378 161.706 36.6503 163.358 36.3477C164.01 36.3477 164.731 36.5572 165.196 36.9078C165.964 37.5145 166.08 38.3307 166.08 39.1717V44.4211C166.08 45.2839 166.382 45.6811 166.731 45.6811C166.917 45.6811 167.313 45.588 167.734 45.3785L167.941 45.8906L165.591 47.0342ZM164.311 41.1082C163.801 41.3177 162.404 41.9477 161.961 42.1805C161.147 42.6243 160.751 43.0913 160.751 43.9308C160.751 45.1675 161.588 45.751 162.289 45.751C162.821 45.751 163.685 45.3319 164.311 44.8416V41.1082Z" fill="white"></path>
  <path fill-rule="evenodd" clip-rule="evenodd" d="M109.878 56.519C109.878 53.9757 109.693 53.8128 107.831 53.6716V53.1348H118.02C118.045 53.5305 118.161 55.2357 118.279 56.5422L117.697 56.6106C117.463 55.4452 117.208 54.8385 116.858 54.466C116.487 54.0674 115.718 53.9059 114.299 53.9059H112.53C111.879 53.9059 111.833 53.951 111.833 54.629V59.9483H114.183C116.184 59.9483 116.253 59.8086 116.487 58.0816H117.069V62.7025H116.487C116.371 61.8382 116.3 61.3727 115.998 61.1151C115.695 60.8576 115.184 60.8125 114.183 60.8125H111.833V64.9431C111.833 66.2729 111.972 66.9727 112.414 67.2521C112.857 67.5314 113.694 67.5314 114.788 67.5314C116.114 67.5314 117.208 67.415 117.72 66.8549C118.115 66.4344 118.488 65.6415 118.837 64.5692L119.418 64.639C119.301 65.2908 118.789 67.6726 118.604 68.3026H107.598V67.7642C109.693 67.626 109.878 67.4616 109.878 64.9169V56.519Z" fill="white"></path>
  <path fill-rule="evenodd" clip-rule="evenodd" d="M124.396 59.598C124.84 59.272 125.35 58.9461 125.956 58.5722C126.654 58.1517 127.234 57.8942 127.957 57.8942C129.866 57.8942 130.912 59.1542 130.912 60.9976V66.2019C130.912 67.5085 131.028 67.6263 132.377 67.7646V68.3014H127.446V67.7646C128.98 67.6263 129.097 67.5085 129.097 66.2019V61.7207C129.097 60.3676 128.656 59.2022 126.933 59.2022C126.024 59.2022 125.094 59.6911 124.396 60.2978V66.2019C124.396 67.5085 124.513 67.6263 125.885 67.7646V68.3014H120.859V67.7646C122.465 67.6263 122.582 67.5085 122.582 66.2019V60.8114C122.582 59.4117 122.537 59.3884 120.999 59.2022V58.7817C122.069 58.5475 123.211 58.2681 124.396 57.8477V59.598Z" fill="white"></path>
  <mask id="mask1_1732_130" style="mask-type:luminance" maskUnits="userSpaceOnUse" x="134" y="51" width="12" height="18">
    <path fill-rule="evenodd" clip-rule="evenodd" d="M134.145 51.7344H145.29V68.6504H134.145V51.7344Z" fill="white"></path>
  </mask>
  <g mask="url(#mask1_1732_130)">
    <path fill-rule="evenodd" clip-rule="evenodd" d="M143.544 66.0146C143.544 67.0418 143.684 67.1568 144.289 67.1815L145.29 67.2033V67.7184C144.894 67.81 143.079 68.0908 141.729 68.651V67.1568L139.868 68.1607C139.193 68.5113 138.867 68.5812 138.635 68.5812C136.75 68.5812 134.145 66.8527 134.145 63.6111C134.145 60.5077 136.727 57.8946 140.427 57.8946C140.566 57.8946 141.287 57.9644 141.729 58.1259V54.5337C141.729 53.1559 141.683 53.1326 139.961 53.0162V52.5491C141.194 52.3411 142.683 51.9672 143.544 51.7344V66.0146ZM141.729 59.7147C141.217 58.9451 140.241 58.7574 139.402 58.7574C138.403 58.7574 136.192 59.4107 136.192 63.0262C136.192 65.8517 137.914 67.2513 139.402 67.2513C140.241 67.2513 141.148 66.8992 141.729 66.4584V59.7147Z" fill="white"></path>
  </g>
  <path fill-rule="evenodd" clip-rule="evenodd" d="M146.668 63.5184C146.668 59.6002 149.693 57.8965 151.81 57.8965C154.765 57.8965 156.882 60.1575 156.882 63.0746C156.882 66.7149 154.183 68.5816 151.833 68.5816C148.553 68.5816 146.668 65.9452 146.668 63.5184ZM154.765 63.5897C154.765 60.9999 153.648 58.5949 151.531 58.5949C149.97 58.5949 148.785 60.2069 148.785 62.6556C148.785 65.6179 150.064 67.8818 152.088 67.8818C153.53 67.8818 154.765 66.7396 154.765 63.5897Z" fill="white"></path>
  <path fill-rule="evenodd" clip-rule="evenodd" d="M162.373 68.4646L159.582 60.1336C159.162 58.8984 159.071 58.8751 157.883 58.7107V58.1738H162.653V58.7107L161.698 58.8751C161.234 58.9682 161.118 59.1763 161.326 59.7844L163.258 65.6188H163.305C164.143 63.4698 165.025 61.043 166.074 58.2917H166.585L169.423 65.6188H169.472C170.028 63.9601 170.798 61.5115 171.216 59.8077C171.378 59.1545 171.333 58.9202 170.681 58.8286L169.774 58.7107V58.1738H173.914V58.7107C172.799 58.8984 172.635 59.0613 172.124 60.4363C171.307 62.6551 170.331 65.3598 169.307 68.4646H168.68L165.793 61.2088C164.934 63.4698 163.979 65.7803 163.003 68.4646H162.373Z" fill="white"></path>
  <path fill-rule="evenodd" clip-rule="evenodd" d="M176.679 60.8114C176.679 59.4117 176.633 59.3884 175.096 59.2022V58.7817C176.167 58.5475 177.307 58.2681 178.494 57.8477V59.598C178.937 59.2953 179.427 58.968 180.077 58.5722C180.775 58.1517 181.357 57.8942 182.171 57.8942C183.334 57.8942 184.38 58.5722 184.799 59.7143C185.451 59.2255 186.172 58.7585 186.545 58.5475C187.243 58.1517 187.824 57.8942 188.592 57.8942C190.477 57.8942 191.524 59.1542 191.524 60.9976V66.2019C191.524 67.5099 191.642 67.6263 192.989 67.7646V68.3014H188.057V67.7646C189.593 67.6263 189.709 67.5099 189.709 66.2019V61.7207C189.709 60.3676 189.267 59.2022 187.546 59.2022C186.73 59.2022 185.824 59.5747 184.962 60.3211C184.985 60.5771 185.01 60.7663 185.01 60.9743V66.2019C185.01 67.5099 185.126 67.6263 186.5 67.7646V68.3014H181.566V67.7646C183.077 67.6263 183.195 67.5099 183.195 66.2019V61.6291C183.195 60.2745 182.706 59.2022 181.1 59.2022C180.17 59.2022 179.238 59.6911 178.494 60.2978V66.2019C178.494 67.5099 178.61 67.6263 180.006 67.7646V68.3014H174.957V67.7646C176.563 67.6263 176.679 67.5099 176.679 66.2019V60.8114Z" fill="white"></path>
  <path fill-rule="evenodd" clip-rule="evenodd" d="M202.951 66.2944C201.672 68.1146 200.065 68.5816 199.437 68.5816C196.483 68.5816 194.715 66.3657 194.715 63.6581C194.715 60.5314 196.901 57.8965 199.694 57.8965C201.509 57.8965 203.021 59.5755 203.021 61.1381C203.021 61.8612 202.951 61.9078 202.532 62.0023C202.207 62.0722 199.321 62.3064 196.436 62.3981C196.367 65.8739 198.554 67.0874 200.229 67.0874C200.997 67.0874 201.695 66.8095 202.626 65.9685L202.951 66.2944ZM200.624 61.4873C200.95 61.4873 201.045 61.3709 201.045 60.7424C201.045 59.8083 200.299 58.688 199.089 58.688C197.972 58.688 196.762 59.833 196.576 61.5586L200.624 61.4873Z" fill="white"></path>
  <path fill-rule="evenodd" clip-rule="evenodd" d="M208.068 59.598C208.512 59.272 209.022 58.9461 209.627 58.5722C210.326 58.1517 210.906 57.8942 211.629 57.8942C213.538 57.8942 214.583 59.1542 214.583 60.9976V66.2019C214.583 67.5085 214.7 67.6263 216.049 67.7646V68.3014H211.118V67.7646C212.652 67.6263 212.768 67.5085 212.768 66.2019V61.7207C212.768 60.3676 212.328 59.2022 210.604 59.2022C209.696 59.2022 208.766 59.6911 208.068 60.2978V66.2019C208.068 67.5085 208.184 67.6263 209.557 67.7646V68.3014H204.531V67.7646C206.137 67.6263 206.253 67.5085 206.253 66.2019V60.8114C206.253 59.4117 206.207 59.3884 204.671 59.2022V58.7817C205.741 58.5475 206.883 58.2681 208.068 57.8477V59.598Z" fill="white"></path>
  <mask id="mask2_1732_130" style="mask-type:luminance" maskUnits="userSpaceOnUse" x="217" y="55" width="7" height="14">
    <path fill-rule="evenodd" clip-rule="evenodd" d="M217.285 55.1641H223.986V68.5816H217.285V55.1641Z" fill="white"></path>
  </mask>
  <g mask="url(#mask2_1732_130)">
    <path fill-rule="evenodd" clip-rule="evenodd" d="M220.892 65.2206C220.892 67.0408 221.754 67.3696 222.382 67.3696C222.798 67.3696 223.312 67.1804 223.754 66.9244L223.987 67.4365L222.079 68.3939C221.847 68.5103 221.543 68.5816 221.381 68.5816C219.892 68.5816 219.077 67.6242 219.077 65.7575V59.0604H217.378L217.285 58.8276L217.96 58.1743H219.077V56.7048L220.59 55.1641H220.892V58.1743H223.59C223.778 58.4304 223.707 58.8043 223.428 59.0604H220.892V65.2206Z" fill="white"></path>
  </g>
</svg>
