<?xml version="1.0" encoding="UTF-8"?>
<svg xmlns="http://www.w3.org/2000/svg" xmlns:xlink="http://www.w3.org/1999/xlink" width="255px" height="80px" viewBox="0 0 255 80" version="1.1">
  <title>AD93BB18-1CEA-4CD4-953D-5630A3E643CC</title>
  <defs>
    <polygon id="path-1" points="0.000493023776 0.210620377 140.354502 0.210620377 140.354502 23.5483455 0.000493023776 23.5483455"></polygon>
    <polygon id="path-3" points="0.75859925 0.614419132 13.3832947 0.614419132 13.3832947 19.7456604 0.75859925 19.7456604"></polygon>
    <polygon id="path-5" points="1.25901838 1.20201708 8.84977678 1.20201708 8.84977678 16.3765571 1.25901838 16.3765571"></polygon>
  </defs>
  <g id="Desktop" stroke="none" stroke-width="1" fill="none" fill-rule="evenodd">
    <g id="v2-|-ConferenceCenters-Detail" transform="translate(-165.000000, -13221.000000)">
      <g id="UI-/-Footer" transform="translate(0.000000, 13167.000000)">
        <g id="logo-footer" transform="translate(165.000000, 46.000000)">
          <g id="logo" transform="translate(0.000000, 8.510537)">
            <g id="Group-3" transform="translate(0.000000, 0.094126)">
              <mask id="mask-2" fill="white">
                <use xlink:href="#path-1"></use>
              </mask>
              <g id="Clip-2"></g>
              <path d="M139.749726,22.6235904 C120.099441,8.54822547 96.0365944,0.250111698 70.0378073,0.210480027 C43.9223378,0.171129057 19.741165,8.46759736 0.000493023776,22.5956174 L0.541175765,23.3262068 C19.0016294,10.2447068 41.5492501,2.55377208 65.8881905,2.55377208 C78.8925143,2.55377208 91.3824499,4.75047679 103.014524,8.79010981 L102.582307,10.0390228 C91.7834426,6.56872302 80.2779111,4.67643057 68.3385186,4.63529377 C48.7589011,4.56618396 30.3247421,9.47627151 14.2291592,18.1775258 L14.7599815,19.0167164 C29.292679,11.0707336 45.9634563,6.5522683 63.6860176,6.5522683 C72.3237942,6.5522683 80.711772,7.62511585 88.721765,9.64410962 L88.4506019,10.9308685 C80.9369195,9.16692283 73.1027717,8.23558585 65.0516935,8.23558585 C53.2996501,8.23558585 42.0077622,10.2216702 31.4997821,13.8779083 L31.8202475,14.8882279 C40.760412,11.7519589 50.3628718,10.0275045 60.3679676,9.98636774 C66.6244393,9.96168566 72.7264303,10.6034196 78.6131341,11.8309415 L78.5769791,12.4973575 C70.060815,14.6627983 62.8018616,17.1556879 54.307062,22.8325653 L54.5815119,23.3031702 C67.6811536,18.0541155 81.91475,15.0461932 96.8878821,15.0461932 C111.930038,15.0461932 126.29675,17.9619691 139.448981,23.2587425 C139.687276,23.3624072 139.920641,23.4644264 140.11292,23.5483455 L140.354502,23.0579949 C140.150718,22.9164843 139.951866,22.7667464 139.749726,22.6235904" id="Fill-1" fill="#FCB813" mask="url(#mask-2)"></path>
            </g>
            <path d="M156.821003,26.037455 C156.821003,28.9137396 157.03136,29.0980324 159.614804,29.2576432 L159.614804,29.8631767 L151.918703,29.8631767 L151.918703,29.2576432 C154.395326,29.0980324 154.607326,28.9137396 154.607326,26.037455 L154.607326,13.5828798 L153.368193,13.5828798 C151.023043,13.5828798 150.311445,13.9267833 149.915383,14.4253613 C149.626142,14.7955924 149.308964,15.5344092 148.993429,16.6961122 L148.33442,16.6961122 C148.439599,15.0868409 148.597366,13.3969415 148.649955,12.0509456 L149.019723,12.0509456 C149.414142,12.6581247 149.678732,12.7107798 150.390329,12.7107798 L161.195767,12.7107798 C161.88107,12.7107798 162.012543,12.5544599 162.4349,12.0509456 L162.804668,12.0509456 C162.829319,13.161639 162.962436,15.0868409 163.093909,16.6171296 L162.4349,16.6961122 C162.170311,15.4307445 161.88107,14.6902822 161.485008,14.2690415 C161.037999,13.7671726 160.221223,13.5828798 158.586028,13.5828798 L156.821003,13.5828798 L156.821003,26.037455 Z" id="Fill-4" fill="#005983"></path>
            <path d="M168.547902,19.9424633 C169.443562,18.9930262 170.866757,18.1488992 172.289952,18.0945986 C174.556218,18.0419435 175.928468,19.5459046 175.928468,21.8956382 L175.928468,27.490242 C175.928468,28.9662301 176.059941,29.0978679 177.667198,29.2311511 L177.667198,29.8630122 L172.079596,29.8630122 L172.079596,29.2574786 C173.739442,29.0978679 173.872559,28.9662301 173.872559,27.490242 L173.872559,22.6871101 C173.872559,20.7865903 173.185612,19.5459046 171.26282,19.5459046 C170.181454,19.5985597 169.20691,19.9951184 168.547902,20.7602628 L168.547902,27.490242 C168.547902,28.9662301 168.679375,29.0978679 170.288276,29.2574786 L170.288276,29.8630122 L164.69903,29.8630122 L164.69903,29.2574786 C166.36052,29.0978679 166.491993,28.9662301 166.491993,27.490242 L166.491993,14.321532 C166.491993,12.7106152 166.439404,12.7385882 164.620146,12.5789775 L164.620146,12.0524265 C165.859279,11.8138331 167.54542,11.3925924 168.547902,11.1276714 L168.547902,19.9424633 Z" id="Fill-6" fill="#005983"></path>
            <path d="M188.394081,27.5945649 C186.944591,29.65305 185.126977,30.1812464 184.413736,30.1812464 C181.067748,30.1812464 179.064428,27.6735476 179.064428,24.6129702 C179.064428,21.0768515 181.541051,18.0969023 184.70462,18.0969023 C186.760529,18.0969023 188.472965,19.9941311 188.472965,21.7630132 C188.472965,22.5808126 188.394081,22.6334677 187.919135,22.7387779 C187.55101,22.819406 184.282263,23.0826815 181.013515,23.1879917 C180.934631,27.1190236 183.412897,28.491347 185.311039,28.491347 C186.180404,28.491347 186.970886,28.1770619 188.025957,27.2259793 L188.394081,27.5945649 Z M185.758047,22.1579264 C186.127815,22.1579264 186.234637,22.0262887 186.234637,21.3154449 C186.234637,20.2590521 185.389923,18.9920389 184.019317,18.9920389 C182.753889,18.9920389 181.383283,20.2870251 181.172926,22.2369091 L185.758047,22.1579264 Z" id="Fill-8" fill="#005983"></path>
            <path d="M94.9024754,39.8424689 C94.1119939,36.8065737 92.4242092,35.9887742 89.842408,35.9887742 C85.0978759,35.9887742 82.9893775,39.5791935 82.9893775,43.7208457 C82.9893775,48.8152261 85.5991167,52.1933795 89.8687026,52.1933795 C92.8186282,52.1933795 94.1892343,50.768401 95.4826,47.9974267 L96.1416085,48.0764093 C95.7981352,49.2084939 95.2163672,51.3212795 94.797297,52.3250173 C94.0577613,52.5076646 91.6863169,53.063834 89.842408,53.063834 C83.1734397,53.063834 80.3796383,48.5223322 80.3796383,44.3280248 C80.3796383,38.8930318 84.5703404,35.1183197 90.3420054,35.1183197 C92.5836202,35.1183197 94.3486453,35.6465161 95.0848942,35.8044814 C95.2985378,37.2557874 95.4037162,38.4174905 95.5598404,39.7898139 L94.9024754,39.8424689 Z" id="Fill-10" fill="#005983"></path>
            <path d="M105.579891,52.9836996 C104.684231,52.8257343 104.288169,51.9273067 104.130401,51.2691181 C103.021098,51.9816073 101.599546,52.9836996 101.045716,52.9836996 C99.1212798,52.9836996 97.8821467,51.4007558 97.8821467,49.9494498 C97.8821467,48.7350916 98.516504,47.8383096 99.8871101,47.2837856 C101.177189,46.7555892 103.33992,45.9904449 104.130401,45.4359209 L104.130401,44.5391388 C104.130401,42.9035399 103.364571,42.0330854 101.969314,42.0330854 C100.677592,42.0330854 100.123761,43.1404879 99.8345209,44.2478903 C99.7556371,44.5654664 99.5173423,44.7497592 99.2281016,44.7497592 C98.8057446,44.7497592 98.0925035,44.3285184 98.0925035,43.8529771 C98.0925035,43.510719 98.4113256,43.1404879 98.9914502,42.7192471 C99.6241641,42.2437058 101.177189,41.2399681 103.049036,40.8977099 C103.788572,40.8977099 104.603704,41.1346579 105.13124,41.5312166 C106.002248,42.2173783 106.133721,43.1404879 106.133721,44.0915705 L106.133721,50.0284324 C106.133721,51.0041971 106.475551,51.4534109 106.871614,51.4534109 C107.08197,51.4534109 107.530622,51.3481007 108.005568,51.1111528 L108.24222,51.6903588 L105.579891,52.9836996 Z M104.130401,46.2816933 C103.550277,46.5186413 101.969314,47.2311305 101.468073,47.494406 C100.546119,47.9962749 100.097467,48.5244713 100.097467,49.4739084 C100.097467,50.8725594 101.045716,51.5323935 101.837841,51.5323935 C102.44426,51.5323935 103.418804,51.0584977 104.130401,50.5039737 L104.130401,46.2816933 Z" id="Fill-12" fill="#005983"></path>
            <path d="M111.11359,37.0978222 C111.11359,35.5412059 111.062644,35.5148784 109.241743,35.3832406 L109.241743,34.8550442 C110.507171,34.6180963 112.222894,34.1935646 113.169499,33.9302891 L113.169499,50.2928597 C113.169499,51.7704933 113.300972,51.902131 115.093935,52.0600963 L115.093935,52.6672754 L109.189154,52.6672754 L109.189154,52.0600963 C110.982117,51.902131 111.11359,51.7704933 111.11359,50.2928597 L111.11359,37.0978222 Z" id="Fill-14" fill="#005983"></path>
            <path d="M121.10406,50.2922015 C121.10406,51.7698351 121.235533,51.9031183 123.000558,52.0594381 L123.000558,52.6666172 L117.17466,52.6666172 L117.17466,52.0594381 C118.916677,51.9031183 119.04815,51.7698351 119.04815,50.2922015 L119.04815,44.1957289 C119.04815,42.6127851 118.995561,42.5864576 117.256831,42.3758372 L117.256831,41.9002959 C118.468026,41.6370204 119.759748,41.3194443 121.10406,40.8455485 L121.10406,50.2922015 Z M121.447533,36.1213993 C121.447533,36.9128711 120.83947,37.5463777 120.076927,37.5463777 C119.339034,37.5463777 118.704677,36.9128711 118.704677,36.1213993 C118.704677,35.3035998 119.339034,34.6700932 120.076927,34.6700932 C120.83947,34.6700932 121.447533,35.3035998 121.447533,36.1213993 L121.447533,36.1213993 Z" id="Fill-16" fill="#005983"></path>
            <path d="M129.168614,42.2173783 L129.168614,50.2917079 C129.168614,51.7446594 129.300087,51.8762971 131.513764,52.0589445 L131.513764,52.667769 L125.370687,52.667769 L125.370687,52.0589445 C126.981232,51.8762971 127.112705,51.7446594 127.112705,50.2917079 L127.112705,42.2173783 L125.239214,42.2173783 L125.135679,41.9541028 L125.873572,41.215286 L127.112705,41.215286 L127.112705,40.8170818 C127.112705,39.7343615 127.217883,38.9182075 127.375651,38.4443116 C127.559713,37.9161152 127.929481,36.5437918 129.352676,35.3277883 C130.379809,34.4853067 131.328058,34.0624205 132.489951,33.9307828 C133.201548,33.9834379 133.99203,34.3783511 134.466976,34.908193 C134.729922,35.1961505 134.677333,35.4067709 134.572154,35.6470098 C134.493271,35.8576301 134.254976,36.1209056 134.06927,36.3051984 C133.753735,36.5684739 133.543378,36.5437918 133.306727,36.3331715 C132.726602,35.7786475 131.936121,35.2504511 131.066755,35.2504511 C130.670693,35.2504511 130.249979,35.4857535 129.906506,35.9612949 C129.538382,36.4368362 129.140676,37.8634601 129.168614,40.1062381 L129.168614,41.215286 L132.434075,41.215286 C132.567191,41.5032435 132.463656,42.0577675 132.172772,42.2173783 L129.168614,42.2173783 Z" id="Fill-18" fill="#005983"></path>
            <path d="M133.519384,47.2566353 C133.519384,42.82538 136.9459,40.8985327 139.343639,40.8985327 C142.69127,40.8985327 145.089009,43.4572412 145.089009,46.7547665 C145.089009,50.8717366 142.032262,52.9828768 139.369933,52.9828768 C135.654177,52.9828768 133.519384,50.0012821 133.519384,47.2566353 M142.69127,47.3372634 C142.69127,44.4083238 141.425842,41.6883591 139.028103,41.6883591 C137.259791,41.6883591 135.917123,43.5115417 135.917123,46.2808706 C135.917123,49.631051 137.368257,52.1914049 139.659174,52.1914049 C141.292726,52.1914049 142.69127,50.8980642 142.69127,47.3372634" id="Fill-20" fill="#005983"></path>
            <path d="M151.205462,50.2922015 C151.205462,51.7698351 151.336935,51.9031183 153.392844,52.0594381 L153.392844,52.6666172 L147.331938,52.6666172 L147.331938,52.0594381 C149.01808,51.9031183 149.149553,51.7698351 149.149553,50.2922015 L149.149553,44.1957289 C149.149553,42.6127851 149.098607,42.5864576 147.35659,42.3758372 L147.35659,41.9002959 C148.595723,41.6370204 149.887445,41.3194443 151.205462,40.8455485 L151.205462,43.5622223 L151.258051,43.5622223 C151.86447,42.5338025 153.156193,40.8982036 154.419977,40.8982036 C155.212102,40.8982036 155.843172,41.6106928 155.843172,42.1372438 C155.843172,42.5864576 155.553932,43.1936366 155.001745,43.4305845 C154.712504,43.5622223 154.472566,43.5095672 154.341093,43.404257 C153.974612,43.0883264 153.685372,42.849733 153.210425,42.849733 C152.576068,42.849733 151.890765,43.3516019 151.205462,44.7239253 L151.205462,50.2922015 Z" id="Fill-22" fill="#005983"></path>
            <path d="M161.454276,42.8232409 C161.955517,42.4546553 162.533998,42.0860696 163.219301,41.6615379 C164.009782,41.1876421 164.668791,40.8963936 165.48721,40.8963936 C167.648298,40.8963936 168.833198,42.3213721 168.833198,44.4061847 L168.833198,50.292037 C168.833198,51.7696706 168.964671,51.9029538 170.494688,52.0592736 L170.494688,52.6664526 L164.907086,52.6664526 L164.907086,52.0592736 C166.644173,51.9029538 166.777289,51.7696706 166.777289,50.292037 L166.777289,45.2239841 C166.777289,43.6936955 166.277692,42.3756726 164.326961,42.3756726 C163.298185,42.3756726 162.243114,42.9285511 161.454276,43.6147128 L161.454276,50.292037 C161.454276,51.7696706 161.585749,51.9029538 163.138774,52.0592736 L163.138774,52.6664526 L157.447636,52.6664526 L157.447636,52.0592736 C159.266894,51.9029538 159.398367,51.7696706 159.398367,50.292037 L159.398367,44.1955643 C159.398367,42.6126206 159.345777,42.586293 157.605404,42.3756726 L157.605404,41.9001313 C158.818242,41.6352104 160.109964,41.3192798 161.454276,40.8437385 L161.454276,42.8232409 Z" id="Fill-24" fill="#005983"></path>
            <path d="M176.240223,50.2922015 C176.240223,51.7698351 176.371696,51.9031183 178.136721,52.0594381 L178.136721,52.6666172 L172.310824,52.6666172 L172.310824,52.0594381 C174.052841,51.9031183 174.184314,51.7698351 174.184314,50.2922015 L174.184314,44.1957289 C174.184314,42.6127851 174.131725,42.5864576 172.389708,42.3758372 L172.389708,41.9002959 C173.604189,41.6370204 174.895912,41.3194443 176.240223,40.8455485 L176.240223,50.2922015 Z M176.582053,36.1213993 C176.582053,36.9128711 175.975634,37.5463777 175.211447,37.5463777 C174.473555,37.5463777 173.840841,36.9128711 173.840841,36.1213993 C173.840841,35.3035998 174.473555,34.6700932 175.211447,34.6700932 C175.975634,34.6700932 176.582053,35.3035998 176.582053,36.1213993 L176.582053,36.1213993 Z" id="Fill-26" fill="#005983"></path>
            <path d="M187.572375,52.9836996 C186.676715,52.8257343 186.280652,51.9273067 186.122885,51.2691181 C185.015225,51.9816073 183.592029,52.9836996 183.038199,52.9836996 C181.115407,52.9836996 179.876274,51.4007558 179.876274,49.9494498 C179.876274,48.7350916 180.508987,47.8383096 181.879594,47.2837856 C183.171316,46.7555892 185.334047,45.9904449 186.122885,45.4359209 L186.122885,44.5391388 C186.122885,42.9035399 185.358698,42.0330854 183.961797,42.0330854 C182.671718,42.0330854 182.117888,43.1404879 181.827004,44.2478903 C181.748121,44.5654664 181.511469,44.7497592 181.220585,44.7497592 C180.798228,44.7497592 180.08663,44.3285184 180.08663,43.8529771 C180.08663,43.510719 180.405452,43.1404879 180.983934,42.7192471 C181.615004,42.2437058 183.171316,41.2399681 185.043163,40.8977099 C185.781055,40.8977099 186.597831,41.1346579 187.125367,41.5312166 C187.994732,42.2173783 188.126205,43.1404879 188.126205,44.0915705 L188.126205,50.0284324 C188.126205,51.0041971 188.468035,51.4534109 188.864097,51.4534109 C189.074454,51.4534109 189.523105,51.3481007 189.999695,51.1111528 L190.234703,51.6903588 L187.572375,52.9836996 Z M186.122885,46.2816933 C185.544404,46.5186413 183.961797,47.2311305 183.460556,47.494406 C182.538602,47.9962749 182.08995,48.5244713 182.08995,49.4739084 C182.08995,50.8725594 183.038199,51.5323935 183.831968,51.5323935 C184.4351,51.5323935 185.412931,51.0584977 186.122885,50.5039737 L186.122885,46.2816933 Z" id="Fill-28" fill="#005983"></path>
            <path d="M124.463031,63.7098714 C124.463031,60.8335869 124.252674,60.649294 122.144175,60.4896833 L122.144175,59.8825042 L133.685862,59.8825042 C133.7138,60.3300725 133.845273,62.2585653 133.978389,63.7361989 L133.319381,63.8135361 C133.054792,62.4955133 132.765551,61.8093516 132.369489,61.3881108 C131.948775,60.9372516 131.077766,60.7546042 129.470509,60.7546042 L127.467189,60.7546042 C126.729297,60.7546042 126.676707,60.8056138 126.676707,61.5724036 L126.676707,67.5882482 L129.339036,67.5882482 C131.605302,67.5882482 131.684186,67.4302829 131.948775,65.477108 L132.607783,65.477108 L132.607783,70.7031261 L131.948775,70.7031261 C131.817302,69.7257159 131.736775,69.199165 131.394945,68.9079165 C131.051472,68.616668 130.47299,68.5656584 129.339036,68.5656584 L126.676707,68.5656584 L126.676707,73.2371525 C126.676707,74.7411136 126.834475,75.5325855 127.335716,75.8485161 C127.836957,76.1644467 128.785206,76.1644467 130.024339,76.1644467 C131.526418,76.1644467 132.765551,76.0328089 133.345676,75.3993023 C133.792684,74.923761 134.215041,74.0269789 134.611103,72.8142663 L135.268468,72.8932489 C135.136995,73.6304203 134.556871,76.3240574 134.346514,77.0365467 L121.879586,77.0365467 L121.879586,76.4277221 C124.252674,76.2714023 124.463031,76.085464 124.463031,73.207534 L124.463031,63.7098714 Z" id="Fill-30" fill="#005983"></path>
            <path d="M140.908332,67.1920186 C141.411216,66.8234329 141.988054,66.4548473 142.675,66.031961 C143.465482,65.5564197 144.122847,65.2651712 144.941266,65.2651712 C147.103997,65.2651712 148.288898,66.6901497 148.288898,68.7749624 L148.288898,74.6608146 C148.288898,76.1384482 148.420371,76.2717314 149.948744,76.4280512 L149.948744,77.0352303 L144.362785,77.0352303 L144.362785,76.4280512 C146.099872,76.2717314 146.232988,76.1384482 146.232988,74.6608146 L146.232988,69.5927618 C146.232988,68.0624731 145.733391,66.7444503 143.781017,66.7444503 C142.752241,66.7444503 141.698813,67.2973288 140.908332,67.9834905 L140.908332,74.6608146 C140.908332,76.1384482 141.039805,76.2717314 142.594473,76.4280512 L142.594473,77.0352303 L136.901692,77.0352303 L136.901692,76.4280512 C138.72095,76.2717314 138.852423,76.1384482 138.852423,74.6608146 L138.852423,68.564342 C138.852423,66.9813982 138.801477,66.9550707 137.059459,66.7444503 L137.059459,66.268909 C138.272298,66.003988 139.565664,65.6880575 140.908332,65.2125161 L140.908332,67.1920186 Z" id="Fill-32" fill="#005983"></path>
            <g id="Group-36" transform="translate(151.193958, 57.685635)">
              <mask id="mask-4" fill="white">
                <use xlink:href="#path-3"></use>
              </mask>
              <g id="Clip-35"></g>
              <path d="M11.4062694,16.7647238 C11.4062694,17.9264269 11.564037,18.0564191 12.2493401,18.0843922 L13.3832947,18.1090742 L13.3832947,18.6915712 C12.9346431,18.7952359 10.878734,19.112812 9.35036026,19.7463186 L9.35036026,18.0564191 L7.24186191,19.1917946 C6.47767505,19.5883533 6.10790722,19.6673359 5.84496121,19.6673359 C3.71016826,19.6673359 0.75859925,17.7125155 0.75859925,14.0464046 C0.75859925,10.5366135 3.68387366,7.5813463 7.87457575,7.5813463 C8.03234336,7.5813463 8.84911942,7.66032894 9.35036026,7.8429763 L9.35036026,3.78030668 C9.35036026,2.22204498 9.29777105,2.19571743 7.34704031,2.0640797 L7.34704031,1.53588328 C8.74394101,1.30058083 10.4300823,0.877694604 11.4062694,0.614419132 L11.4062694,16.7647238 Z M9.35036026,9.6398314 C8.77023561,8.76937687 7.66421894,8.55711102 6.71432647,8.55711102 C5.58201519,8.55711102 3.07745441,9.29592781 3.07745441,13.384925 C3.07745441,16.580431 5.02818515,18.1633748 6.71432647,18.1633748 C7.66421894,18.1633748 8.69135181,17.7651706 9.35036026,17.2665927 L9.35036026,9.6398314 Z" id="Fill-34" fill="#005983" mask="url(#mask-4)"></path>
            </g>
            <path d="M166.135701,71.625413 C166.135701,67.1941577 169.562216,65.2673103 171.959955,65.2673103 C175.307587,65.2673103 177.705326,67.8243734 177.705326,71.1235441 C177.705326,75.2405143 174.648578,77.3516545 171.98625,77.3516545 C168.270494,77.3516545 166.135701,74.3700598 166.135701,71.625413 M175.307587,71.7060411 C175.307587,68.7771015 174.042159,66.0571368 171.64442,66.0571368 C169.876108,66.0571368 168.53344,67.8803194 168.53344,70.6496483 C168.53344,73.9998286 169.98293,76.5601826 172.27549,76.5601826 C173.909042,76.5601826 175.307587,75.2684873 175.307587,71.7060411" id="Fill-37" fill="#005983"></path>
            <path d="M183.927614,77.2206749 L180.765688,67.798704 C180.290742,66.4016985 180.187207,66.375371 178.841252,66.1894327 L178.841252,65.5822536 L184.244793,65.5822536 L184.244793,66.1894327 L183.163427,66.375371 C182.637535,66.4806812 182.506062,66.7159836 182.74107,67.4037908 L184.930096,74.0021323 L184.982685,74.0021323 C185.932578,71.5717706 186.931773,68.8271238 188.11996,65.7155368 L188.698441,65.7155368 L191.912956,74.0021323 L191.968832,74.0021323 C192.598259,72.1262946 193.470911,69.3569657 193.944214,67.4301183 C194.128276,66.6913016 194.07733,66.4263806 193.337795,66.3227159 L192.310662,66.1894327 L192.310662,65.5822536 L197.000961,65.5822536 L197.000961,66.1894327 C195.737177,66.4016985 195.551472,66.5859914 194.97299,68.1409621 C194.047749,70.6503065 192.941732,73.7092383 191.781483,77.2206749 L191.071529,77.2206749 L187.801138,69.0147076 C186.828238,71.5717706 185.746872,74.1847797 184.640855,77.2206749 L183.927614,77.2206749 Z" id="Fill-39" fill="#005983"></path>
            <path d="M200.133799,68.564342 C200.133799,66.9813982 200.08121,66.9550707 198.340836,66.7444503 L198.340836,66.268909 C199.553674,66.003988 200.845396,65.6880575 202.189708,65.2125161 L202.189708,67.1920186 C202.690949,66.8497605 203.246422,66.4795293 203.982671,66.031961 C204.773153,65.5564197 205.432161,65.2651712 206.354115,65.2651712 C207.672132,65.2651712 208.857033,66.031961 209.331979,67.3236563 C210.069871,66.7707778 210.886647,66.2425814 211.309004,66.003988 C212.099486,65.5564197 212.758494,65.2651712 213.62786,65.2651712 C215.762653,65.2651712 216.949196,66.6901497 216.949196,68.7749624 L216.949196,74.6608146 C216.949196,76.1400937 217.082313,76.2717314 218.609043,76.4280512 L218.609043,77.0352303 L213.02144,77.0352303 L213.02144,76.4280512 C214.761814,76.2717314 214.893287,76.1400937 214.893287,74.6608146 L214.893287,69.5927618 C214.893287,68.0624731 214.392046,66.7444503 212.442959,66.7444503 C211.519361,66.7444503 210.492228,67.165691 209.516041,68.009818 C209.542336,68.299421 209.570274,68.5133324 209.570274,68.7486348 L209.570274,74.6608146 C209.570274,76.1400937 209.701747,76.2717314 211.258059,76.4280512 L211.258059,77.0352303 L205.668812,77.0352303 L205.668812,76.4280512 C207.381248,76.2717314 207.514365,76.1400937 207.514365,74.6608146 L207.514365,69.4890971 C207.514365,67.9571629 206.960535,66.7444503 205.141277,66.7444503 C204.08785,66.7444503 203.032779,67.2973288 202.189708,67.9834905 L202.189708,74.6608146 C202.189708,76.1400937 202.321181,76.2717314 203.902144,76.4280512 L203.902144,77.0352303 L198.183068,77.0352303 L198.183068,76.4280512 C200.002326,76.2717314 200.133799,76.1400937 200.133799,74.6608146 L200.133799,68.564342 Z" id="Fill-41" fill="#005983"></path>
            <path d="M229.890249,74.7653021 C228.440759,76.8237872 226.621501,77.3519836 225.909904,77.3519836 C222.563916,77.3519836 220.560596,74.8459302 220.560596,71.7837074 C220.560596,68.2475887 223.037218,65.2676394 226.200788,65.2676394 C228.256697,65.2676394 229.969133,67.1665138 229.969133,68.9337504 C229.969133,69.7515498 229.890249,69.8042049 229.415303,69.9111606 C229.047178,69.9901432 225.778431,70.2550642 222.509683,70.3587289 C222.432443,74.2897608 224.909065,75.6620842 226.807207,75.6620842 C227.676572,75.6620842 228.467054,75.3477991 229.522124,74.3967164 L229.890249,74.7653021 Z M227.254215,69.3286636 C227.623983,69.3286636 227.730805,69.1970259 227.730805,68.4861821 C227.730805,67.4297893 226.886091,66.162776 225.515485,66.162776 C224.250057,66.162776 222.879451,67.4577623 222.669094,69.4092917 L227.254215,69.3286636 Z" id="Fill-43" fill="#005983"></path>
            <path d="M235.690345,67.1920186 C236.193229,66.8234329 236.770067,66.4548473 237.45537,66.031961 C238.247495,65.5564197 238.90486,65.2651712 239.723279,65.2651712 C241.88601,65.2651712 243.069267,66.6901497 243.069267,68.7749624 L243.069267,74.6608146 C243.069267,76.1384482 243.202384,76.2717314 244.730758,76.4280512 L244.730758,77.0352303 L239.144798,77.0352303 L239.144798,76.4280512 C240.881885,76.2717314 241.013358,76.1384482 241.013358,74.6608146 L241.013358,69.5927618 C241.013358,68.0624731 240.515404,66.7444503 238.56303,66.7444503 C237.534254,66.7444503 236.480826,67.2973288 235.690345,67.9834905 L235.690345,74.6608146 C235.690345,76.1384482 235.821818,76.2717314 237.376486,76.4280512 L237.376486,77.0352303 L231.683705,77.0352303 L231.683705,76.4280512 C233.502963,76.2717314 233.634436,76.1384482 233.634436,74.6608146 L233.634436,68.564342 C233.634436,66.9813982 233.581847,66.9550707 231.841473,66.7444503 L231.841473,66.268909 C233.054311,66.003988 234.347677,65.6880575 235.690345,65.2125161 L235.690345,67.1920186 Z" id="Fill-45" fill="#005983"></path>
            <g id="Group-49" transform="translate(244.868476, 60.976578)">
              <mask id="mask-6" fill="white">
                <use xlink:href="#path-5"></use>
              </mask>
              <g id="Clip-48"></g>
              <path d="M5.34454208,12.5755175 C5.34454208,14.6340025 6.32072915,15.0058792 7.0323268,15.0058792 C7.50398622,15.0058792 8.08575427,14.7919678 8.58699511,14.5023648 L8.84994112,15.0815708 L6.68885357,16.1642912 C6.42590756,16.295929 6.08243433,16.3765571 5.89837212,16.3765571 C4.2122308,16.3765571 3.28863293,15.2938367 3.28863293,13.1826965 L3.28863293,5.60859028 L1.36419679,5.60859028 L1.25901838,5.34531481 L2.02320524,4.60649802 L3.28863293,4.60649802 L3.28863293,2.9445716 L5.00271226,1.20201708 L5.34454208,1.20201708 L5.34454208,4.60649802 L8.40128949,4.60649802 C8.61328971,4.89610104 8.5327625,5.31898726 8.21722728,5.60859028 L5.34454208,5.60859028 L5.34454208,12.5755175 Z" id="Fill-47" fill="#005983" mask="url(#mask-6)"></path>
            </g>
          </g>
        </g>
      </g>
    </g>
  </g>
</svg>
