<?xml version="1.0" encoding="UTF-8"?>
<svg xmlns="http://www.w3.org/2000/svg" width="20" height="20" viewBox="0 0 20 20" fill="none">
  <path fill-rule="evenodd" clip-rule="evenodd" d="M14.5 12.4446C16.0352 12.8506 17.6714 12.1314 18.3586 10.708C18.7314 9.93981 18.77 9.08981 18.5193 8.33426C18.275 7.61018 17.7671 6.97426 17.0471 6.5587C15.6252 5.74377 13.8074 6.06843 12.7814 7.30573C13.6464 6.01311 13.4492 4.27928 12.2711 3.20277C11.6347 2.62351 10.7861 2.32129 10.0018 2.32129C9.21755 2.32129 8.43969 2.59833 7.80969 3.13351C6.53583 4.22521 6.32214 6.06478 7.2937 7.40909C6.30783 6.11955 4.49318 5.72463 3.037 6.50201C2.272 6.91127 1.72557 7.57238 1.47486 8.32793C1.23057 9.05201 1.25629 9.86423 1.59057 10.6072C2.24973 12.0872 3.91945 12.8602 5.5 12.4418V12.4559C4.01726 13.006 3.12654 14.5248 3.43035 16.0661C3.59749 16.9035 4.0732 17.615 4.73535 18.0809C5.36535 18.5217 6.16892 18.7483 6.9982 18.6728C8.6458 18.5205 9.91457 17.214 9.99617 15.6246C10.0739 17.175 11.2821 18.4637 12.887 18.6602C13.7548 18.7672 14.597 18.5406 15.2591 18.0746C15.8891 17.6276 16.352 16.9602 16.5384 16.1669C16.8978 14.6009 16.0206 13.0232 14.5 12.4548V12.4446ZM7.3612 7.50018L7.35398 7.49051L7.36083 7.50018H7.3612Z" fill="#FFD15C"></path>
  <path d="M12.9813 11.0291C12.9813 9.4235 11.6442 8.12646 9.99848 8.12646C8.35277 8.12646 7.01562 9.4298 7.01562 11.0291C7.01562 12.6283 8.35277 13.9317 9.99848 13.9317C11.6442 13.9317 12.9813 12.6283 12.9813 11.0291Z" fill="#FFB600" stroke="#001638" stroke-linecap="round" stroke-linejoin="round"></path>
  <path d="M8.24683 8.68684L7.32112 7.44647C6.31826 6.09907 6.52398 4.23536 7.80969 3.13351C8.43969 2.59833 9.21755 2.32129 10.0018 2.32129C10.7861 2.32129 11.6347 2.62351 12.2711 3.20277C13.5183 4.3424 13.6661 6.2187 12.6183 7.52833L11.7504 8.68684" stroke="#001638" stroke-linecap="round" stroke-linejoin="round"></path>
  <path d="M7.16414 11.923L5.65986 12.3952C4.03343 12.9115 2.272 12.1371 1.59057 10.6071C1.25629 9.86411 1.23057 9.05188 1.47486 8.32781C1.72557 7.57225 2.272 6.91114 3.037 6.50188C4.53486 5.70225 6.412 6.143 7.37629 7.52188" stroke="#001638" stroke-linecap="round" stroke-linejoin="round"></path>
  <path d="M10.0003 13.9253V15.4616C10.0003 17.1238 8.70177 18.5153 6.9982 18.6727C6.16892 18.7483 5.36535 18.5216 4.73535 18.0809C4.0732 17.6149 3.59749 16.9035 3.43035 16.066C3.10892 14.4353 4.12463 12.8297 5.76392 12.3701" stroke="#001638" stroke-linecap="round" stroke-linejoin="round"></path>
  <path d="M12.8291 11.9229L14.327 12.3951C15.9534 12.9051 16.9113 14.5421 16.5384 16.1666C16.352 16.9599 15.8891 17.6273 15.2591 18.0743C14.597 18.5403 13.7548 18.7669 12.887 18.6599C11.1898 18.4521 9.93625 17.0229 9.99411 15.3543" stroke="#001638" stroke-linecap="round" stroke-linejoin="round"></path>
  <path d="M11.75 8.68025L12.6757 7.43988C13.6786 6.09247 15.575 5.71469 17.0471 6.5584C17.7671 6.97395 18.275 7.60988 18.5193 8.33395C18.77 9.08951 18.7314 9.93951 18.3586 10.7077C17.6321 12.2125 15.845 12.9302 14.2379 12.3636" stroke="#001638" stroke-linecap="round" stroke-linejoin="round"></path>
  <path d="M10 8.12006V5.53857" stroke="#001638" stroke-linecap="round" stroke-linejoin="round"></path>
  <path d="M7.15672 10.1287L4.63672 9.3291" stroke="#001638" stroke-linecap="round" stroke-linejoin="round"></path>
  <path d="M8.24574 13.3774L6.68359 15.4678" stroke="#001638" stroke-linecap="round" stroke-linejoin="round"></path>
  <path d="M11.7539 13.3774L13.3096 15.4678" stroke="#001638" stroke-linecap="round" stroke-linejoin="round"></path>
  <path d="M12.8398 10.1283L15.3598 9.33496" stroke="#001638" stroke-linecap="round" stroke-linejoin="round"></path>
</svg>
