<?xml version="1.0" encoding="UTF-8"?>
<svg xmlns="http://www.w3.org/2000/svg" width="44" height="43" viewBox="0 0 44 43" fill="none">
  <path fill-rule="evenodd" clip-rule="evenodd" d="M27.8401 1H16.4997V15.6594L1.5 15.6594V26.9998H16.4997V42H27.8401V26.9998H42.5V15.6594L27.8401 15.6594V1Z" fill="#FFB600"></path>
  <path d="M16.4997 1V0H15.4997V1H16.4997ZM27.8401 1H28.8401V0H27.8401V1ZM16.4997 15.6594V16.6594H17.4997V15.6594H16.4997ZM1.5 15.6594L1.5 14.6594H0.5V15.6594H1.5ZM1.5 26.9998H0.5V27.9998H1.5V26.9998ZM16.4997 26.9998H17.4997V25.9998H16.4997V26.9998ZM16.4997 42H15.4997V43H16.4997V42ZM27.8401 42V43H28.8401V42H27.8401ZM27.8401 26.9998V25.9998H26.8401V26.9998H27.8401ZM42.5 26.9998V27.9998H43.5V26.9998H42.5ZM42.5 15.6594H43.5V14.6594H42.5V15.6594ZM27.8401 15.6594H26.8401V16.6594H27.8401V15.6594ZM16.4997 2H27.8401V0H16.4997V2ZM17.4997 15.6594V1H15.4997V15.6594H17.4997ZM1.5 16.6594L16.4997 16.6594V14.6594L1.5 14.6594L1.5 16.6594ZM2.5 26.9998V15.6594H0.5V26.9998H2.5ZM16.4997 25.9998H1.5V27.9998H16.4997V25.9998ZM17.4997 42V26.9998H15.4997V42H17.4997ZM27.8401 41H16.4997V43H27.8401V41ZM26.8401 26.9998V42H28.8401V26.9998H26.8401ZM42.5 25.9998H27.8401V27.9998H42.5V25.9998ZM41.5 15.6594V26.9998H43.5V15.6594H41.5ZM27.8401 16.6594L42.5 16.6594V14.6594L27.8401 14.6594V16.6594ZM26.8401 1V15.6594H28.8401V1H26.8401Z" fill="#001F51"></path>
</svg>
