<svg width="120" height="120" viewBox="0 0 120 120" fill="none" xmlns="http://www.w3.org/2000/svg">
<circle cx="60" cy="60" r="60" fill="white"/>
<path d="M40.6983 10.0674L41.4354 16.4843L40.8004 16.7818L38.1582 13.7577L38.8198 17.7188L38.1848 18.0164L33.7041 13.3669L34.4812 12.9983L37.9583 16.7063L37.2789 12.5987L37.834 12.3366L40.5695 15.4541L39.9167 10.4316L40.6938 10.063L40.6983 10.0674Z" fill="#231F20"/>
<path d="M48.3412 12.5545L45.8055 13.2472L45.6457 14.9214L44.833 15.1434L45.468 8.62443L46.2896 8.39795L50.1441 13.6913L49.3315 13.9134L48.3412 12.5545ZM47.8971 11.9372L46.1563 9.53922L45.8721 12.4879L47.8971 11.9372Z" fill="#231F20"/>
<path d="M55.358 7.53175L53.5062 7.77155L54.1989 13.1004L53.3952 13.2026L52.7024 7.87369L50.8506 8.11349L50.7529 7.37188L55.2558 6.78571L55.3535 7.52731L55.358 7.53175Z" fill="#231F20"/>
<path d="M58.146 9.67675C58.1771 7.94486 59.576 6.56379 61.3078 6.59487C62.2493 6.61264 63.0619 7.02563 63.5904 7.67398L62.9953 8.16246C62.5957 7.67398 61.9784 7.35424 61.2945 7.34536C60.0067 7.32316 58.9765 8.38005 58.9543 9.69451C58.932 11.0001 59.9268 12.1014 61.2146 12.1236C61.8985 12.1369 62.5246 11.835 62.942 11.3598L63.5193 11.866C62.9687 12.4966 62.1427 12.883 61.2013 12.8652C59.4694 12.8341 58.1149 11.4086 58.146 9.67675Z" fill="#231F20"/>
<path d="M72.0145 7.96258L70.8954 13.9798L70.1005 13.8332L70.589 11.2043L67.6359 10.6537L67.1474 13.2826L66.3525 13.136L67.4716 7.11884L68.2665 7.26538L67.7691 9.92983L70.7222 10.4805L71.2196 7.81603L72.0145 7.96258Z" fill="#231F20"/>
<path d="M83.8581 12.2434L79.666 17.066L78.96 16.7463L79.7859 10.4049L80.5453 10.7468L79.8614 15.6716L83.1032 11.9014L83.8581 12.2434Z" fill="#231F20"/>
<path d="M86.9756 13.9932L87.6684 14.4106L84.5199 19.6596L83.8271 19.2421L86.9756 13.9932Z" fill="#231F20"/>
<path d="M91.2477 16.7286L93.1039 18.2029C94.4672 19.2864 94.4361 20.965 93.3526 22.3283C92.2735 23.6828 90.657 24.078 89.2937 22.9944L87.4375 21.5157L91.2477 16.7241V16.7286ZM89.76 22.4127C90.7681 23.2165 91.9093 22.8523 92.722 21.8265C93.5346 20.8052 93.6501 19.5884 92.6421 18.7891L91.4208 17.8165L88.5388 21.4402L89.76 22.4127Z" fill="#231F20"/>
<path d="M96.6655 29.0696L96.1148 29.5759L93.6191 26.8537L98.1309 22.7194L100.569 25.3749L100.018 25.8812L98.1221 23.8118L96.6566 25.1573L98.313 26.9647L97.7579 27.4754L96.1015 25.668L94.716 26.9425L96.6744 29.0741L96.6655 29.0696Z" fill="#231F20"/>
<path d="M100.24 29.7799C101.696 28.8207 103.61 29.1804 104.565 30.6325C105.529 32.0935 105.102 34.003 103.65 34.9578C102.203 35.9125 100.284 35.5484 99.3206 34.0874C98.3614 32.6353 98.7921 30.7346 100.24 29.7799ZM103.206 34.2828C104.303 33.5589 104.663 32.1335 103.943 31.041C103.237 29.9664 101.781 29.731 100.684 30.4549C99.5915 31.1743 99.2362 32.5997 99.9423 33.6744C100.662 34.7668 102.114 35.0022 103.202 34.2828H103.206Z" fill="#231F20"/>
<path d="M107.346 46.2241C108.043 46.042 108.7 46.4861 108.882 47.1833C109.06 47.8716 108.709 48.5866 108.012 48.7686C107.306 48.9552 106.64 48.5022 106.458 47.8139C106.276 47.1167 106.64 46.4062 107.346 46.2241Z" fill="#231F20"/>
<path d="M112.825 67.8816L106.879 65.3593L106.932 64.6577L110.867 63.8495L107.097 62.4728L107.15 61.7712L113.407 60.1636L113.345 61.0207L108.402 62.2197L112.31 63.6541L112.266 64.2669L108.202 65.1106L112.896 67.0201L112.829 67.8772L112.825 67.8816Z" fill="#231F20"/>
<path d="M106.893 73.3036L107.541 70.7546L106.164 69.791L106.373 68.9739L111.729 72.7352L111.52 73.5612L105.019 74.3072L105.227 73.4901L106.897 73.2992L106.893 73.3036ZM107.647 73.2192L110.592 72.8862L108.167 71.1854L107.652 73.2148L107.647 73.2192Z" fill="#231F20"/>
<path d="M107.808 81.8789L108.509 80.1514L103.531 78.1265L103.838 77.376L108.816 79.401L109.517 77.6735L110.21 77.9533L108.5 82.1587L107.808 81.8789Z" fill="#231F20"/>
<path d="M104.561 83.2599C106.053 84.1392 106.56 86.0399 105.676 87.5319C105.196 88.3446 104.437 88.842 103.611 88.9841L103.482 88.2247C104.104 88.1181 104.686 87.7407 105.037 87.15C105.694 86.0399 105.281 84.6233 104.153 83.9527C103.029 83.2866 101.582 83.6063 100.924 84.7165C100.578 85.3071 100.529 85.9999 100.733 86.5949L100.005 86.8481C99.7298 86.0576 99.8009 85.1517 100.28 84.339C101.16 82.847 103.069 82.3762 104.561 83.2599Z" fill="#231F20"/>
<path d="M99.1971 96.1424L94.5254 92.1945L95.045 91.5773L97.0877 93.3047L99.0239 91.0133L96.9811 89.2858L97.5007 88.6686L102.172 92.6164L101.653 93.2337L99.5834 91.484L97.6472 93.7754L99.7166 95.5251L99.1971 96.1424Z" fill="#231F20"/>
<path d="M89.636 104.331L87.5 98.3094L88.1217 97.8521L93.2374 101.689L92.5624 102.182L88.6102 99.1665L90.2977 103.843L89.6316 104.331H89.636Z" fill="#231F20"/>
<path d="M86.5719 106.187L85.8703 106.587L82.8506 101.263L83.5522 100.863L86.5719 106.183V106.187Z" fill="#231F20"/>
<path d="M82.0908 108.554L79.8927 109.442C78.2807 110.095 76.833 109.242 76.1802 107.63C75.5319 106.027 75.9848 104.424 77.6012 103.771L79.7994 102.883L82.0908 108.554ZM77.881 104.46C76.6865 104.944 76.4422 106.112 76.9307 107.324C77.4192 108.536 78.4183 109.234 79.6129 108.75L81.0606 108.163L79.3287 103.874L77.881 104.46Z" fill="#231F20"/>
<path d="M68.6751 107.182L68.5107 106.454L72.1122 105.632L73.4755 111.601L69.9584 112.404L69.7941 111.676L72.5296 111.05L72.0855 109.109L69.6964 109.656L69.5277 108.918L71.9168 108.372L71.4994 106.538L68.6751 107.182Z" fill="#231F20"/>
<path d="M66.2953 109.931C66.4063 111.667 65.1496 113.155 63.4132 113.266C61.668 113.377 60.2203 112.063 60.1093 110.326C59.9983 108.599 61.2639 107.111 63.0091 107C64.7454 106.889 66.1842 108.204 66.2953 109.931ZM60.9175 110.277C61.0019 111.587 62.0632 112.609 63.3688 112.524C64.6522 112.44 65.5759 111.299 65.4915 109.984C65.4071 108.683 64.3458 107.662 63.0624 107.746C61.7613 107.83 60.8376 108.976 60.922 110.277H60.9175Z" fill="#231F20"/>
<path d="M48.4878 107.99C48.3013 108.687 47.5908 109.038 46.898 108.856C46.2097 108.674 45.7612 108.012 45.9477 107.315C46.1342 106.609 46.8536 106.25 47.5419 106.436C48.2391 106.623 48.6743 107.289 48.4878 107.995V107.99Z" fill="#231F20"/>
<path d="M26.9502 102.062L32.0881 98.145L32.6699 98.5358L31.422 102.355L34.4906 99.7614L35.0723 100.152L33.3671 106.383L32.6521 105.903L34.0643 101.014L30.8803 103.7L30.374 103.358L31.6529 99.4106L27.6652 102.541L26.9502 102.062Z" fill="#231F20"/>
<path d="M25.1653 94.2196L27.0615 96.0448L28.5802 95.3254L29.1886 95.9116L23.2691 98.7092L22.6562 98.1186L25.223 92.0925L25.8314 92.6787L25.1697 94.2241L25.1653 94.2196ZM24.8633 94.9168L23.6954 97.6435L26.3732 96.3734L24.8633 94.9213V94.9168Z" fill="#231F20"/>
<path d="M17.2557 90.7868L18.4103 92.2478L22.6245 88.9172L23.1263 89.5523L18.9121 92.8828L20.0666 94.3438L19.4805 94.8057L16.665 91.2442L17.2512 90.7823L17.2557 90.7868Z" fill="#231F20"/>
<path d="M17.6597 87.2964C16.1587 88.1623 14.2537 87.6694 13.3922 86.1684C12.9214 85.3513 12.8593 84.4454 13.1435 83.6549L13.8673 83.9125C13.6542 84.5076 13.6941 85.2003 14.0361 85.7909C14.68 86.9056 16.1143 87.2475 17.2556 86.5947C18.388 85.9419 18.8188 84.5253 18.1793 83.4107C17.8373 82.8201 17.2601 82.4337 16.6383 82.3183L16.776 81.5634C17.602 81.7143 18.3525 82.2206 18.8232 83.0377C19.6891 84.5386 19.1562 86.4304 17.6553 87.2964H17.6597Z" fill="#231F20"/>
<path d="M9.08496 76.2701L14.8268 74.1519L15.1066 74.9112L12.5976 75.8349L13.6367 78.6503L16.1457 77.7267L16.4255 78.486L10.6836 80.6043L10.4039 79.8449L12.944 78.9079L11.9048 76.0925L9.36473 77.0295L9.08496 76.2701Z" fill="#231F20"/>
<path d="M6.7002 63.8982L12.9883 65.0306L13.0771 65.7988L7.21088 68.3389L7.11763 67.5085L11.696 65.5724L6.79789 64.7197L6.70464 63.8982H6.7002Z" fill="#231F20"/>
<path d="M6.59375 60.2345L6.60707 59.4263L12.7264 59.524L12.7131 60.3322L6.59375 60.2345Z" fill="#231F20"/>
<path d="M6.75346 55.2652L7.06432 52.9161C7.29079 51.1931 8.74736 50.3538 10.4704 50.5803C12.1889 50.8067 13.3568 51.9924 13.1259 53.7154L12.8151 56.0646L6.74902 55.2608L6.75346 55.2652ZM12.3888 53.6177C12.5575 52.3432 11.6605 51.5528 10.3638 51.3796C9.06709 51.2064 7.97023 51.7349 7.80148 53.0093L7.59721 54.5592L12.1845 55.1676L12.3888 53.6177Z" fill="#231F20"/>
<path d="M14.5563 44.2792L15.2712 44.4923L14.2143 48.0316L8.35254 46.2819L9.38279 42.827L10.0978 43.0402L9.29398 45.7313L11.1991 46.2997L11.9007 43.9505L12.6245 44.1681L11.9229 46.5173L13.7258 47.0546L14.5563 44.2792Z" fill="#231F20"/>
<path d="M13.335 40.8553C11.7674 40.096 11.0969 38.2708 11.8562 36.7032C12.62 35.1312 14.4763 34.5184 16.0394 35.2778C17.5981 36.0327 18.2687 37.8667 17.5048 39.4432C16.7455 41.0108 14.8937 41.6103 13.335 40.8553ZM15.6886 36.006C14.5073 35.4332 13.0996 35.8551 12.5268 37.0274C11.9628 38.1865 12.5046 39.5542 13.6858 40.1271C14.8582 40.6955 16.2703 40.2736 16.8298 39.1146C17.3983 37.9422 16.8609 36.5745 15.6841 36.0016L15.6886 36.006Z" fill="#231F20"/>
<path d="M23.8326 26.3207C23.3175 25.8145 23.3619 25.024 23.8682 24.5133C24.3655 24.0071 25.1649 23.9449 25.6755 24.4467C26.1951 24.9574 26.1507 25.7612 25.6533 26.2674C25.1471 26.7825 24.3522 26.8314 23.8326 26.3207Z" fill="#231F20"/>
</svg>
